<svg width="69" height="69" viewBox="0 0 69 69" fill="none" xmlns="http://www.w3.org/2000/svg">
<path opacity="0.3" d="M34.4998 11.5C54.4178 11.5 66.8665 33.0625 56.9075 50.3125C54.6366 54.2459 51.3703 57.5122 47.4369 59.7832C43.5035 62.0542 39.0417 63.2499 34.4998 63.25C14.5818 63.25 2.13301 41.6875 12.092 24.4375C14.363 20.5041 17.6293 17.2378 21.5626 14.9668C25.496 12.6958 29.9579 11.5001 34.4998 11.5Z" fill="#5555C2"/>
<path d="M21.1773 8.54161C21.5585 9.20193 21.6618 9.98666 21.4645 10.7232C21.2672 11.4597 20.7854 12.0876 20.125 12.4689C17.1342 14.2036 14.4772 16.4585 12.2792 19.1274C12.0434 19.4309 11.7493 19.6842 11.414 19.8721C11.0787 20.06 10.7091 20.1788 10.3271 20.2214C9.94515 20.2641 9.5585 20.2297 9.19004 20.1203C8.82158 20.0109 8.47879 19.8287 8.18195 19.5846C7.88511 19.3404 7.64024 19.0392 7.46183 18.6988C7.28341 18.3583 7.17506 17.9856 7.1432 17.6025C7.11133 17.2195 7.1566 16.834 7.27631 16.4687C7.39602 16.1035 7.58775 15.766 7.84017 15.4761C10.4698 12.2714 13.6554 9.56692 17.2443 7.49223C17.5712 7.3029 17.9322 7.17985 18.3067 7.13012C18.6812 7.08039 19.0618 7.10496 19.4268 7.20241C19.7918 7.29987 20.134 7.46831 20.4339 7.69809C20.7338 7.92788 20.9854 8.21451 21.1744 8.54161H21.1773ZM51.75 7.49223C55.3397 9.56578 58.5263 12.2693 61.157 15.4732C61.6161 16.0644 61.8264 16.8114 61.7434 17.5552C61.6604 18.2991 61.2906 18.9813 60.7125 19.4568C60.1345 19.9323 59.3937 20.1636 58.6478 20.1015C57.9019 20.0395 57.2096 19.6889 56.718 19.1245C54.5242 16.4522 51.8664 14.1976 48.8722 12.4689C48.2122 12.0868 47.7311 11.4583 47.5345 10.7215C47.338 9.98478 47.4422 9.20011 47.8242 8.54017C48.2062 7.88023 48.8348 7.39907 49.5715 7.20254C50.3083 7.00602 51.0901 7.11022 51.75 7.49223ZM34.5 23C33.7959 23.0001 33.1162 23.2586 32.59 23.7265C32.0637 24.1945 31.7276 24.8393 31.6452 25.5386L31.625 25.875V37.3347C31.6164 37.973 31.8205 38.5997 32.2058 39.1086L32.4645 39.4076L38.5193 45.4595C39.0355 45.9806 39.7313 46.2847 40.4644 46.3096C41.1974 46.3344 41.9123 46.0782 42.4626 45.5933C43.0129 45.1083 43.3571 44.4314 43.4246 43.7011C43.4922 42.9707 43.2781 42.2421 42.826 41.6645L42.5845 41.3942L37.375 36.1847V25.875C37.375 25.1125 37.0721 24.3812 36.533 23.8421C35.9938 23.3029 35.2625 23 34.5 23Z" fill="#5555C2"/>
</svg>
