<svg width="92" height="93" viewBox="0 0 92 93" fill="none" xmlns="http://www.w3.org/2000/svg">
<path d="M56.3498 62.6C57.2648 62.6 58.1423 62.9635 58.7893 63.6105C59.4363 64.2575 59.7998 65.135 59.7998 66.05C59.7998 66.965 59.4363 67.8425 58.7893 68.4895C58.1423 69.1365 57.2648 69.5 56.3498 69.5H35.6498C34.7348 69.5 33.8573 69.1365 33.2103 68.4895C32.5633 67.8425 32.1998 66.965 32.1998 66.05C32.1998 65.135 32.5633 64.2575 33.2103 63.6105C33.8573 62.9635 34.7348 62.6 35.6498 62.6H56.3498ZM65.5498 43.05C66.4648 43.05 67.3423 43.4135 67.9893 44.0605C68.6363 44.7075 68.9998 45.585 68.9998 46.5C68.9998 47.415 68.6363 48.2925 67.9893 48.9395C67.3423 49.5865 66.4648 49.95 65.5498 49.95H26.4498C25.5348 49.95 24.6573 49.5865 24.0103 48.9395C23.3633 48.2925 22.9998 47.415 22.9998 46.5C22.9998 45.585 23.3633 44.7075 24.0103 44.0605C24.6573 43.4135 25.5348 43.05 26.4498 43.05H65.5498ZM74.7498 23.5C75.6648 23.5 76.5423 23.8635 77.1893 24.5105C77.8363 25.1575 78.1998 26.035 78.1998 26.95C78.1998 27.865 77.8363 28.7425 77.1893 29.3895C76.5423 30.0365 75.6648 30.4 74.7498 30.4H17.2498C16.3348 30.4 15.4573 30.0365 14.8103 29.3895C14.1633 28.7425 13.7998 27.865 13.7998 26.95C13.7998 26.035 14.1633 25.1575 14.8103 24.5105C15.4573 23.8635 16.3348 23.5 17.2498 23.5H74.7498Z" fill="#5555C2"/>
</svg>
