<svg width="46" height="46" viewBox="0 0 46 46" fill="none" xmlns="http://www.w3.org/2000/svg">
<path d="M40.7676 38.3237H40.3651V22.9904C40.3651 21.2011 39.6542 19.485 38.389 18.2198C37.1238 16.9546 35.4077 16.2437 33.6184 16.2437H31.5101V11.4712C31.5101 10.5836 31.3349 9.70477 30.9947 8.88497C30.6544 8.06518 30.1557 7.32058 29.5272 6.69384C28.8987 6.0671 28.1527 5.57055 27.3319 5.23262C26.5112 4.8947 25.6318 4.72205 24.7442 4.72458H11.4617C10.5741 4.72205 9.69475 4.8947 8.87399 5.23262C8.05324 5.57055 7.30723 6.0671 6.67871 6.69384C6.05019 7.32058 5.55152 8.06518 5.21127 8.88497C4.87102 9.70477 4.69588 10.5836 4.69588 11.4712V38.5346C4.43876 38.6414 4.21934 38.8224 4.0657 39.0546C3.91205 39.2868 3.83116 39.5595 3.83338 39.8379C3.8308 40.0274 3.86623 40.2155 3.93755 40.3911C4.00888 40.5666 4.11467 40.7261 4.24867 40.8601C4.38267 40.9941 4.54217 41.0999 4.71774 41.1712C4.89331 41.2426 5.08139 41.278 5.27088 41.2754H40.7292C41.1105 41.2754 41.4761 41.124 41.7457 40.8544C42.0153 40.5848 42.1667 40.2192 42.1667 39.8379C42.1667 39.4567 42.0153 39.091 41.7457 38.8214C41.4761 38.5519 41.1105 38.4004 40.7292 38.4004L40.7676 38.3237ZM11.3851 20.2687C11.3851 19.8875 11.5365 19.5219 11.8061 19.2523C12.0757 18.9827 12.4413 18.8312 12.8226 18.8312H23.4601C23.8413 18.8312 24.2069 18.9827 24.4765 19.2523C24.7461 19.5219 24.8976 19.8875 24.8976 20.2687C24.8976 20.65 24.7461 21.0156 24.4765 21.2852C24.2069 21.5548 23.8413 21.7062 23.4601 21.7062H12.8226C12.4428 21.7013 12.0801 21.5482 11.8116 21.2797C11.5431 21.0112 11.39 20.6484 11.3851 20.2687ZM12.8226 11.7396H23.4601C23.8413 11.7396 24.2069 11.891 24.4765 12.1606C24.7461 12.4302 24.8976 12.7958 24.8976 13.1771C24.8976 13.5583 24.7461 13.924 24.4765 14.1935C24.2069 14.4631 23.8413 14.6146 23.4601 14.6146H12.8226C12.4413 14.6146 12.0757 14.4631 11.8061 14.1935C11.5365 13.924 11.3851 13.5583 11.3851 13.1771C11.3851 12.7958 11.5365 12.4302 11.8061 12.1606C12.0757 11.891 12.4413 11.7396 12.8226 11.7396ZM15.1609 38.3237V30.0054C15.1609 29.8452 15.1927 29.6866 15.2546 29.5388C15.3165 29.3911 15.4071 29.2571 15.5213 29.1447C15.6355 29.0323 15.7709 28.9438 15.9196 28.8843C16.0683 28.8247 16.2274 28.7954 16.3876 28.7979H19.9334C20.0936 28.7954 20.2526 28.8247 20.4014 28.8843C20.5501 28.9438 20.6855 29.0323 20.7996 29.1447C20.9138 29.2571 21.0045 29.3911 21.0663 29.5388C21.1282 29.6866 21.1601 29.8452 21.1601 30.0054V38.3237H15.1609ZM37.5284 38.3237H31.5484V19.0421H33.6567C34.6734 19.0421 35.6484 19.4459 36.3673 20.1648C37.0862 20.8837 37.4901 21.8587 37.4901 22.8754L37.5284 38.3237Z" fill="#5555C2"/>
</svg>
