<svg width="90" height="90" viewBox="0 0 90 90" fill="none" xmlns="http://www.w3.org/2000/svg">
<path d="M21 7.5C18.4141 7.5 15.9342 8.52723 14.1057 10.3557C12.2772 12.1842 11.25 14.6641 11.25 17.25V35.25C11.25 36.5304 11.5022 37.7982 11.9922 38.9812C12.4822 40.1641 13.2003 41.2389 14.1057 42.1443C15.9342 43.9728 18.4141 45 21 45H31.5C34.0859 45 36.5658 43.9728 38.3943 42.1443C40.2228 40.3158 41.25 37.8359 41.25 35.25V17.25C41.25 14.6641 40.2228 12.1842 38.3943 10.3557C36.5658 8.52723 34.0859 7.5 31.5 7.5H21ZM21 52.5C18.4141 52.5 15.9342 53.5272 14.1057 55.3557C12.2772 57.1842 11.25 59.6641 11.25 62.25V72.75C11.25 75.3359 12.2772 77.8158 14.1057 79.6443C15.9342 81.4728 18.4141 82.5 21 82.5H31.5C34.0859 82.5 36.5658 81.4728 38.3943 79.6443C40.2228 77.8158 41.25 75.3359 41.25 72.75V62.25C41.25 59.6641 40.2228 57.1842 38.3943 55.3557C36.5658 53.5272 34.0859 52.5 31.5 52.5H21ZM58.5 7.5C55.9141 7.5 53.4342 8.52723 51.6057 10.3557C49.7772 12.1842 48.75 14.6641 48.75 17.25V27.75C48.75 30.3359 49.7772 32.8158 51.6057 34.6443C53.4342 36.4728 55.9141 37.5 58.5 37.5H69C70.2804 37.5 71.5482 37.2478 72.7312 36.7578C73.9141 36.2678 74.9889 35.5497 75.8943 34.6443C76.7997 33.7389 77.5178 32.6641 78.0078 31.4812C78.4978 30.2982 78.75 29.0304 78.75 27.75V17.25C78.75 15.9696 78.4978 14.7018 78.0078 13.5188C77.5178 12.3359 76.7997 11.2611 75.8943 10.3557C74.9889 9.45034 73.9141 8.73216 72.7312 8.24217C71.5482 7.75219 70.2804 7.5 69 7.5H58.5ZM58.5 45C55.9141 45 53.4342 46.0272 51.6057 47.8557C49.7772 49.6842 48.75 52.1641 48.75 54.75V72.75C48.75 75.3359 49.7772 77.8158 51.6057 79.6443C53.4342 81.4728 55.9141 82.5 58.5 82.5H69C70.2804 82.5 71.5482 82.2478 72.7312 81.7578C73.9141 81.2678 74.9889 80.5497 75.8943 79.6443C76.7997 78.7389 77.5178 77.6641 78.0078 76.4812C78.4978 75.2982 78.75 74.0304 78.75 72.75V54.75C78.75 53.4696 78.4978 52.2018 78.0078 51.0188C77.5178 49.8359 76.7997 48.7611 75.8943 47.8557C74.9889 46.9503 73.9141 46.2322 72.7312 45.7422C71.5482 45.2522 70.2804 45 69 45H58.5Z" fill="white"/>
</svg>
