<svg width="90" height="90" viewBox="0 0 90 90" fill="none" xmlns="http://www.w3.org/2000/svg">
<path d="M45 18.7499C50.3319 18.7507 55.5372 20.3752 59.9231 23.4072C64.3091 26.4392 67.6677 30.7349 69.5521 35.7227C71.4365 40.7106 71.7573 46.154 70.4718 51.3286C69.1863 56.5033 66.3555 61.1638 62.356 64.6899C58.3566 68.2161 53.3781 70.4407 48.0832 71.0678C42.7883 71.6948 37.4279 70.6945 32.7155 68.2001C28.003 65.7056 24.1619 61.8352 21.7033 57.104C19.2448 52.3727 18.2852 47.0049 18.9525 41.7149C19.0262 41.2205 19.0003 40.7162 18.8764 40.2319C18.7524 39.7476 18.5328 39.293 18.2306 38.8948C17.9284 38.4965 17.5496 38.1628 17.1165 37.9131C16.6834 37.6634 16.2047 37.5028 15.7086 37.4408C15.2126 37.3788 14.7091 37.4166 14.2279 37.552C13.7466 37.6874 13.2973 37.9177 12.9064 38.2292C12.5154 38.5408 12.1907 38.9274 11.9513 39.3663C11.712 39.8052 11.5628 40.2875 11.5125 40.7849C11.3375 42.1699 11.25 43.5749 11.25 44.9999C11.2506 52.5239 13.7653 59.8319 18.3946 65.7631C23.024 71.6943 29.5026 75.9085 36.8011 77.7363C44.0997 79.5641 51.7998 78.9007 58.6782 75.8514C65.5565 72.8021 71.2187 67.5418 74.7653 60.9061C78.3119 54.2705 79.5395 46.64 78.253 39.2268C76.9666 31.8136 73.2399 25.0429 67.665 19.9901C62.09 14.9374 54.9866 11.8924 47.483 11.3388C39.9794 10.7853 32.506 12.7549 26.25 16.9349V14.9999C26.25 14.0054 25.8549 13.0515 25.1516 12.3483C24.4484 11.645 23.4946 11.2499 22.5 11.2499C21.5054 11.2499 20.5516 11.645 19.8483 12.3483C19.1451 13.0515 18.75 14.0054 18.75 14.9999V26.2499C18.75 27.2445 19.1451 28.1983 19.8483 28.9016C20.5516 29.6048 21.5054 29.9999 22.5 29.9999H33.75C34.7446 29.9999 35.6984 29.6048 36.4016 28.9016C37.1049 28.1983 37.5 27.2445 37.5 26.2499C37.5 25.2554 37.1049 24.3015 36.4016 23.5983C35.6984 22.895 34.7446 22.4999 33.75 22.4999H31.47C35.5536 20.0393 40.2324 18.7426 45 18.7499ZM48.75 29.9999C48.75 29.0054 48.3549 28.0515 47.6516 27.3483C46.9484 26.645 45.9946 26.2499 45 26.2499C44.0054 26.2499 43.0516 26.645 42.3483 27.3483C41.6451 28.0515 41.25 29.0054 41.25 29.9999V44.9999C41.25 45.9945 41.6451 46.9483 42.3483 47.6516C43.0516 48.3548 44.0054 48.7499 45 48.7499H54.375C55.3696 48.7499 56.3234 48.3548 57.0266 47.6516C57.7299 46.9483 58.125 45.9945 58.125 44.9999C58.125 44.0054 57.7299 43.0515 57.0266 42.3483C56.3234 41.645 55.3696 41.2499 54.375 41.2499H48.75V29.9999Z" fill="white"/>
</svg>
