<svg width="78" height="78" viewBox="0 0 78 78" fill="none" xmlns="http://www.w3.org/2000/svg">
<path fill-rule="evenodd" clip-rule="evenodd" d="M52.4061 39.0002C52.4061 38.3537 52.1493 37.7338 51.6922 37.2766C51.2351 36.8195 50.6151 36.5627 49.9686 36.5627H14.3064L20.6796 31.1027C20.9229 30.8944 21.1228 30.6403 21.2678 30.3548C21.4129 30.0692 21.5002 29.7579 21.525 29.4386C21.5497 29.1194 21.5114 28.7983 21.412 28.4939C21.3127 28.1894 21.1544 27.9075 20.9461 27.6642C20.7378 27.4209 20.4837 27.2211 20.1982 27.076C19.9126 26.931 19.6013 26.8436 19.2821 26.8188C18.9628 26.7941 18.6417 26.8325 18.3373 26.9318C18.0328 27.0311 17.7509 27.1894 17.5076 27.3977L6.13261 37.1477C5.86502 37.3765 5.65018 37.6606 5.50288 37.9804C5.35557 38.3002 5.2793 38.6481 5.2793 39.0002C5.2793 39.3523 5.35557 39.7002 5.50288 40.02C5.65018 40.3398 5.86502 40.6239 6.13261 40.8527L17.5076 50.6027C17.9989 51.0233 18.6372 51.2316 19.2821 51.1816C19.9269 51.1316 20.5255 50.8275 20.9461 50.3362C21.3667 49.8449 21.575 49.2066 21.525 48.5618C21.475 47.9169 21.1709 47.3183 20.6796 46.8977L14.3096 41.4377H49.9686C50.6151 41.4377 51.2351 41.1809 51.6922 40.7238C52.1493 40.2667 52.4061 39.6467 52.4061 39.0002Z" fill="#5555C2"/>
<path d="M30.4688 26C30.4688 28.2815 30.4687 29.4222 31.018 30.2445C31.2546 30.598 31.5582 30.9017 31.9118 31.1383C32.734 31.6875 33.8747 31.6875 36.1562 31.6875H49.9688C51.9081 31.6875 53.7681 32.4579 55.1395 33.8293C56.5108 35.2006 57.2812 37.0606 57.2812 39C57.2812 40.9394 56.5108 42.7994 55.1395 44.1707C53.7681 45.5421 51.9081 46.3125 49.9688 46.3125H36.1562C33.8747 46.3125 32.734 46.3125 31.9118 46.8585C31.5579 47.096 31.2542 47.4008 31.018 47.7555C30.4687 48.5778 30.4688 49.7185 30.4688 52C30.4688 61.191 30.4687 65.7898 33.3255 68.6433C36.179 71.5 40.7745 71.5 49.9655 71.5H53.2155C62.413 71.5 67.0053 71.5 69.862 68.6433C72.7188 65.7898 72.7188 61.191 72.7188 52V26C72.7188 16.809 72.7188 12.2102 69.862 9.35675C67.0053 6.50325 62.4098 6.5 53.2188 6.5H49.9688C40.7745 6.5 36.179 6.5 33.3255 9.35675C30.4687 12.2102 30.4688 16.809 30.4688 26Z" fill="#5555C2"/>
</svg>
