<svg width="49" height="49" viewBox="0 0 49 49" fill="none" xmlns="http://www.w3.org/2000/svg">
<path d="M34.5345 8.84775L29.2325 14.1545L35.013 19.9302L34.6302 20.9638C33.4791 24.0981 31.6601 26.9446 29.2995 29.3061C26.9388 31.6676 24.0929 33.4875 20.959 34.6397L19.9254 35.0226L19.8823 34.9795L14.1497 29.2373L8.84778 34.544L13.8483 39.5445C14.3651 40.0565 15.0924 40.2958 15.8006 40.1762C21.4423 39.2431 27.0649 36.2093 31.6347 31.6394C36.2045 27.0696 39.2383 21.4423 40.1714 15.8006C40.291 15.0924 40.0518 14.365 39.535 13.8482L34.5345 8.84775Z" fill="#5555C2" fill-opacity="0.21"/>
<path d="M41.9706 11.4222L36.8744 6.33076C36.2523 5.70869 35.4197 5.35938 34.5393 5.35938C33.6588 5.35938 32.8262 5.70391 32.2041 6.33076L26.7155 11.8098C26.0935 12.4318 25.7441 13.2692 25.7441 14.1497C25.7441 15.035 26.0887 15.8628 26.7155 16.4896L31.003 20.7819C30.0263 23.0577 28.6229 25.1254 26.8687 26.8734C25.1125 28.6392 23.0597 30.0316 20.7819 31.0174L16.4944 26.7251C15.8724 26.103 15.0397 25.7537 14.1593 25.7537C13.725 25.7521 13.2948 25.8372 12.8938 26.004C12.4928 26.1708 12.1291 26.416 11.8241 26.7251L6.33076 32.2041C5.70869 32.8262 5.35938 33.6636 5.35938 34.544C5.35938 35.4293 5.70391 36.2571 6.33076 36.884L11.4222 41.9754C12.4845 43.0377 13.9487 43.6454 15.4513 43.6454C15.7623 43.6454 16.0638 43.6215 16.37 43.5688C22.7056 42.5257 28.9933 39.1521 34.0703 34.0799C39.1426 28.998 42.5113 22.7104 43.5641 16.37C43.8655 14.5708 43.2626 12.7189 41.9706 11.4222ZM40.1714 15.8006C39.2383 21.4423 36.2045 27.0696 31.6347 31.6395C27.0648 36.2093 21.4423 39.2431 15.8006 40.1762C15.0924 40.2958 14.365 40.0565 13.8482 39.5445L8.84775 34.544L14.1497 29.2373L19.8823 34.9795L19.9254 35.0226L20.959 34.6397C24.0929 33.4875 26.9388 31.6676 29.2995 29.3061C31.6601 26.9446 33.479 24.0981 34.6302 20.9638L35.013 19.9302L29.2325 14.1545L34.5345 8.84775L39.535 13.8482C40.0518 14.365 40.291 15.0924 40.1714 15.8006Z" fill="#5555C2"/>
</svg>
