<svg width="69" height="69" viewBox="0 0 69 69" fill="none" xmlns="http://www.w3.org/2000/svg">
<path d="M28.75 5.75H8.625C7.03718 5.75 5.75 7.03718 5.75 8.625V28.75C5.75 30.3378 7.03718 31.625 8.625 31.625H28.75C30.3378 31.625 31.625 30.3378 31.625 28.75V8.625C31.625 7.03718 30.3378 5.75 28.75 5.75Z" fill="#5555C2"/>
<path opacity="0.5" d="M28.75 37.375H8.625C7.03718 37.375 5.75 38.6622 5.75 40.25V60.375C5.75 61.9628 7.03718 63.25 8.625 63.25H28.75C30.3378 63.25 31.625 61.9628 31.625 60.375V40.25C31.625 38.6622 30.3378 37.375 28.75 37.375Z" fill="#5555C2"/>
<path opacity="0.5" d="M60.375 5.75H40.25C38.6622 5.75 37.375 7.03718 37.375 8.625V28.75C37.375 30.3378 38.6622 31.625 40.25 31.625H60.375C61.9628 31.625 63.25 30.3378 63.25 28.75V8.625C63.25 7.03718 61.9628 5.75 60.375 5.75Z" fill="#5555C2"/>
<path opacity="0.5" d="M60.375 37.375H40.25C38.6622 37.375 37.375 38.6622 37.375 40.25V60.375C37.375 61.9628 38.6622 63.25 40.25 63.25H60.375C61.9628 63.25 63.25 61.9628 63.25 60.375V40.25C63.25 38.6622 61.9628 37.375 60.375 37.375Z" fill="#5555C2"/>
</svg>
