<svg width="36" height="36" viewBox="0 0 36 36" fill="none" xmlns="http://www.w3.org/2000/svg">
<path d="M2.66667 35.25C2.12362 35.25 1.66873 35.066 1.30201 34.698C0.935285 34.33 0.751284 33.8751 0.750007 33.3333C0.748729 32.7916 0.932729 32.3367 1.30201 31.9687C1.67128 31.6007 2.12617 31.4167 2.66667 31.4167H4.58334V2.66667C4.58334 2.12361 4.76734 1.66872 5.13534 1.302C5.50334 0.935278 5.95823 0.751278 6.50001 0.75H19.9167C20.4597 0.75 20.9153 0.934 21.2833 1.302C21.6513 1.67 21.8346 2.12489 21.8333 2.66667H29.5C30.0431 2.66667 30.4986 2.85067 30.8666 3.21867C31.2346 3.58667 31.418 4.04156 31.4167 4.58333V31.4167H33.3333C33.8764 31.4167 34.3319 31.6007 34.6999 31.9687C35.0679 32.3367 35.2513 32.7916 35.25 33.3333C35.2487 33.8751 35.0647 34.3306 34.698 34.6999C34.3313 35.0692 33.8764 35.2526 33.3333 35.25H29.5C28.957 35.25 28.5021 35.066 28.1353 34.698C27.7686 34.33 27.5846 33.8751 27.5833 33.3333V6.5H21.8333V33.3333C21.8333 33.8764 21.6493 34.3319 21.2813 34.6999C20.9133 35.0679 20.4585 35.2513 19.9167 35.25H2.66667ZM18 18C18 17.4569 17.816 17.0021 17.448 16.6353C17.08 16.2686 16.6251 16.0846 16.0833 16.0833C15.5416 16.0821 15.0867 16.2661 14.7187 16.6353C14.3507 17.0046 14.1667 17.4595 14.1667 18C14.1667 18.5405 14.3507 18.996 14.7187 19.3666C15.0867 19.7371 15.5416 19.9205 16.0833 19.9167C16.6251 19.9128 17.0806 19.7288 17.4499 19.3647C17.8192 19.0005 18.0026 18.5456 18 18Z" fill="#5555C2"/>
</svg>
