<svg width="1206" height="358" viewBox="0 0 1206 358" fill="none" xmlns="http://www.w3.org/2000/svg">
<path d="M0 20.38C8.99035e-06 24.6327 100 65.1403 160.5 65.1403C221 65.1403 334.5 0.500092 438.5 0.5C542.5 0.499908 599.223 70.7718 690.5 65.1403C768.335 60.3382 821.609 12.5 899.535 12.5C961.535 12.5 1050 65.1403 1114.5 65.1403C1169.17 65.1403 1206 20.38 1206 20.38V358H0C0 358 6.10352e-05 277.195 0 20.38Z" fill="url(#paint0_linear_2055_49)"/>
<path d="M913.575 278H909.951V270.608H903.159V278H899.535V260.864H903.159V267.584H909.951V260.864H913.575V278ZM924.294 278H916.494V275.936L918.582 274.976V263.888L916.494 262.928V260.864H924.294V262.928L922.206 263.888V274.976L924.294 275.936V278ZM937.318 273.248C937.318 274.256 937.07 275.136 936.575 275.888C936.079 276.64 935.358 277.224 934.414 277.64C933.486 278.04 932.35 278.24 931.006 278.24C930.414 278.24 929.83 278.2 929.254 278.12C928.694 278.04 928.15 277.928 927.622 277.784C927.11 277.624 926.622 277.432 926.159 277.208V273.824C926.974 274.176 927.815 274.504 928.679 274.808C929.559 275.096 930.43 275.24 931.294 275.24C931.886 275.24 932.359 275.16 932.711 275C933.078 274.84 933.343 274.624 933.503 274.352C933.679 274.08 933.766 273.768 933.766 273.416C933.766 272.984 933.614 272.616 933.31 272.312C933.022 272.008 932.631 271.728 932.135 271.472C931.639 271.2 931.07 270.912 930.43 270.608C930.03 270.416 929.599 270.192 929.135 269.936C928.671 269.664 928.223 269.336 927.791 268.952C927.375 268.552 927.03 268.072 926.758 267.512C926.486 266.952 926.35 266.28 926.35 265.496C926.35 264.472 926.582 263.6 927.046 262.88C927.526 262.144 928.199 261.584 929.063 261.2C929.943 260.816 930.974 260.624 932.159 260.624C933.055 260.624 933.902 260.728 934.702 260.936C935.518 261.144 936.366 261.44 937.246 261.824L936.07 264.656C935.286 264.336 934.583 264.088 933.959 263.912C933.335 263.736 932.694 263.648 932.038 263.648C931.59 263.648 931.207 263.72 930.887 263.864C930.567 264.008 930.318 264.208 930.142 264.464C929.982 264.72 929.902 265.024 929.902 265.376C929.902 265.776 930.023 266.12 930.263 266.408C930.503 266.68 930.863 266.944 931.343 267.2C931.823 267.456 932.422 267.76 933.142 268.112C934.022 268.528 934.767 268.96 935.375 269.408C935.999 269.856 936.479 270.384 936.815 270.992C937.151 271.6 937.318 272.352 937.318 273.248ZM947.033 278H943.409V263.888H938.753V260.864H951.689V263.888H947.033V278ZM969.415 269.408C969.415 270.736 969.247 271.944 968.911 273.032C968.591 274.104 968.095 275.032 967.423 275.816C966.767 276.6 965.919 277.2 964.879 277.616C963.855 278.032 962.647 278.24 961.255 278.24C959.863 278.24 958.647 278.032 957.607 277.616C956.583 277.184 955.735 276.584 955.063 275.816C954.407 275.032 953.911 274.096 953.575 273.008C953.255 271.92 953.095 270.712 953.095 269.384C953.095 267.608 953.383 266.064 953.959 264.752C954.551 263.44 955.447 262.424 956.647 261.704C957.863 260.968 959.407 260.6 961.279 260.6C963.135 260.6 964.663 260.968 965.863 261.704C967.063 262.424 967.951 263.448 968.527 264.776C969.119 266.088 969.415 267.632 969.415 269.408ZM956.911 269.408C956.911 270.608 957.063 271.64 957.367 272.504C957.671 273.368 958.143 274.032 958.783 274.496C959.423 274.96 960.247 275.192 961.255 275.192C962.295 275.192 963.127 274.96 963.751 274.496C964.391 274.032 964.855 273.368 965.143 272.504C965.447 271.64 965.599 270.608 965.599 269.408C965.599 267.6 965.263 266.184 964.591 265.16C963.919 264.136 962.815 263.624 961.279 263.624C960.255 263.624 959.423 263.856 958.783 264.32C958.143 264.784 957.671 265.448 957.367 266.312C957.063 267.176 956.911 268.208 956.911 269.408ZM977.956 260.864C979.508 260.864 980.788 261.056 981.796 261.44C982.804 261.808 983.557 262.376 984.053 263.144C984.549 263.896 984.796 264.848 984.796 266C984.796 266.784 984.644 267.472 984.34 268.064C984.052 268.64 983.66 269.136 983.164 269.552C982.684 269.952 982.165 270.28 981.605 270.536L986.645 278H982.612L978.533 271.424H976.588V278H972.964V260.864H977.956ZM977.692 263.84H976.588V268.472H977.764C978.564 268.472 979.213 268.384 979.709 268.208C980.205 268.032 980.564 267.768 980.788 267.416C981.012 267.048 981.125 266.608 981.125 266.096C981.125 265.552 980.997 265.12 980.741 264.8C980.501 264.464 980.124 264.224 979.612 264.08C979.116 263.92 978.476 263.84 977.692 263.84ZM994.136 267.92L997.712 260.864H1001.62L995.936 271.328V278H992.336V271.448L986.648 260.864H990.584L994.136 267.92Z" fill="url(#paint1_linear_2055_49)"/>
<defs>
<linearGradient id="paint0_linear_2055_49" x1="619" y1="20.3801" x2="625.4" y2="376.331" gradientUnits="userSpaceOnUse">
<stop stop-color="#5555C2"/>
<stop offset="1" stop-color="#B66AE7"/>
</linearGradient>
<linearGradient id="paint1_linear_2055_49" x1="619" y1="20.3801" x2="625.4" y2="376.331" gradientUnits="userSpaceOnUse">
<stop stop-color="#5555C2"/>
<stop offset="1" stop-color="#B66AE7"/>
</linearGradient>
</defs>
</svg>
